<?xml version="1.0" encoding="utf-8"?>
<!-- Generator: Adobe Illustrator 21.0.0, SVG Export Plug-In . SVG Version: 6.00 Build 0)  -->
<svg version="1.1" id="Layer_1" xmlns="http://www.w3.org/2000/svg" xmlns:xlink="http://www.w3.org/1999/xlink" x="0px" y="0px"
	 viewBox="0 0 875 511.9" style="enable-background:new 0 0 875 511.9;" xml:space="preserve">
<style type="text/css">
	.st0{fill:#FFED34;}
	.st1{fill:#1C252B;}
	.st2{fill:#1D252C;}
	.st3{fill:#FFFFFF;}
</style>
<g>
	<polygon class="st0" points="700.2,371.9 875,371.9 875,511.9 700.1,511.9 656.6,470.9 656.6,413.2 	"/>
	<path class="st3" d="M156.9,110.5l3.4-1.2c2.2-1,4.8-2.8,7.8-5.3c3-2.5,6.1-5.4,9.1-8.7c3-3.3,5.7-7.7,7.9-13.2
		c2.2-5.5,3.3-11.3,3.3-17.3c0-15.9-7.2-29.6-21.6-41.1c-14.4-11.5-34-17.3-58.9-17.3H0v221h114.2c29.3,0,89.9-5.5,89.9-63.2
		C204.1,120,157.9,110.9,156.9,110.5 M71.5,58.1h26.3c5.3,0,9.6,1.6,12.9,4.7c3.3,3.1,5,6.9,5,11.5c0,4.6-1.7,8.4-5,11.5
		c-3.3,3.1-7.6,4.7-12.9,4.7H71.5V58.1z M120.7,170.4c-4.1,3.9-9.3,5.8-15.5,5.8H71.5v-39.7h33.7c6.2,0,11.4,1.9,15.5,5.7
		c4.1,3.8,6.2,8.5,6.2,14C126.8,161.8,124.8,166.5,120.7,170.4"/>
	<path class="st3" d="M213.7,355.1l3.4-1.2c2.2-1,4.8-2.8,7.8-5.3c3-2.5,6.1-5.4,9.1-8.7c3-3.3,5.7-7.7,7.9-13.2
		c2.2-5.5,3.3-11.3,3.3-17.3c0-15.9-7.2-29.6-21.6-41.1c-14.4-11.5-34-17.3-58.9-17.3H57v221h114c29.3,0,89.9-5.5,89.9-63.2
		C260.9,364.6,214.7,355.5,213.7,355.1 M128.5,302.7h26.1c5.3,0,9.6,1.6,12.9,4.7c3.3,3.1,5,6.9,5,11.5c0,4.6-1.7,8.4-5,11.5
		c-3.3,3.1-7.7,4.7-12.9,4.7h-26.1V302.7z M177.5,415c-4.1,3.9-9.3,5.8-15.5,5.8h-33.4v-39.7h33.4c6.2,0,11.4,1.9,15.5,5.7
		c4.1,3.8,6.2,8.5,6.2,14C183.6,406.4,181.6,411.1,177.5,415"/>
	<polygon class="st3" points="387.1,173.7 280.3,173.7 280.3,139 367.5,139 367.5,88.5 280.3,88.5 280.3,60.1 387.3,60.1 387.3,6.3 
		208.8,6.3 208.8,227.3 387.1,227.3 	"/>
	<polygon class="st3" points="569.8,6.3 569.8,60.1 628.2,60.1 628.2,227.3 699.3,227.3 699.3,60.1 757.7,60.1 757.7,6.3 	"/>
	<path class="st3" d="M489,170.1c-3.9,3.4-9.3,5.1-16.3,5.1c-6.9,0-14.2-1.9-21.7-5.7c-7.5-3.8-12.5-6.9-15-9.2
		c-1.4-1.3-2.7-2.5-3.7-3.5l-42.2,40l2.7,2.7c2.6,2.7,6.5,5.9,11.9,9.6c5.3,3.7,11.5,7.4,18.6,11.1c7,3.7,15.8,6.9,26.4,9.5
		c10.5,2.6,21.4,3.9,32.6,3.9c27.9,0,50.2-7.2,66.7-21.7c16.5-14.5,24.8-32,24.8-52.4c0-11.8-2.4-22.2-7.2-31.1
		c-4.8-8.9-10.7-15.7-17.9-20.2c-7.1-4.5-14.9-8.6-23.2-12.2c-7.6-3.3-14.7-5.8-21.3-7.5c-0.6-0.2-1.3-0.3-1.9-0.5
		c-7.1-1.7-13.1-3.9-17.8-6.5c-4.7-2.6-7.1-5.6-7.1-9c0-4.1,1.6-7.5,4.9-10.2c3.3-2.7,8-4,14-4c14.4,0,23.3,6.5,27.8,11.2l42.3-40.2
		l-0.8-0.9c-1.8-2.4-5-5.1-9.6-8.1c-4.5-3-9.8-6.1-15.8-9.2c-6-3.1-13.8-5.7-23.4-7.9C507.4,1.1,497.4,0,486.9,0
		c-26.5,0-47.8,7-64,21c-16.2,14-24.3,30.5-24.3,49.4c0,10.1,1.8,19.1,5.4,27.1c3.6,8,8.2,14.4,13.7,19.1
		c5.5,4.7,11.7,8.9,18.6,12.5c5.7,3,11.5,5.5,17.3,7.6c1.1,0.4,2.2,0.8,3.3,1.1c6.9,2.2,13.2,4.3,18.8,6.2
		c5.6,1.9,10.2,3.9,13.8,6.1c3.6,2.2,5.4,4.7,5.4,7.7C494.9,162.6,492.9,166.7,489,170.1"/>
	<path class="st3" d="M387.3,382.2c0,14.6-11.8,26.4-26.4,26.6c-14.7,0.1-26.7-11.8-26.7-26.6V251h-71.5v127.9
		c0,52.7,42.8,95.5,95.5,95.5h4.5c52.7,0,95.5-42.8,95.5-95.5V251h-70.9V382.2z"/>
	<polygon class="st3" points="580.4,326.2 533.5,251 461.9,251 544.6,393.1 544.6,472 616.1,472 616.1,393.1 698.8,251 627.2,251 	
		"/>
	<path class="st1" d="M691.4,441.8c0,4.8-3.9,8.6-8.6,8.6c-4.8,0-8.6-3.9-8.6-8.6c0-4.8,3.9-8.6,8.6-8.6
		C687.5,433.1,691.4,437,691.4,441.8"/>
	<path class="st3" d="M700.3,314.4h-5.2v-1.6h12.4v1.6h-5.2v15.1h-2.1V314.4z M710.7,312.7h2.9l5.4,13.2l5.3-13.2h2.9v16.7h-2v-14.2
		l-5.9,14.2h-0.7l-5.9-14.2v14.2h-1.9V312.7z"/>
</g>
</svg>
