<svg width="150" height="19" viewBox="0 0 150 19" fill="none" xmlns="http://www.w3.org/2000/svg">
<g clip-path="url(#clip0_90_5870)">
<path d="M72.6432 10.2511C72.6432 13.443 70.641 15.3459 67.8709 15.3459C66.3389 15.3459 65.0047 14.7302 64.3954 13.7116V18.9982H62.2542V5.3117H64.2172L64.3935 6.81175C65.0028 5.79317 66.2977 5.11987 67.8689 5.11987C70.5392 5.11987 72.6413 6.94602 72.6413 10.253L72.6432 10.2511ZM70.4236 10.2511C70.4236 8.23315 69.207 6.98247 67.4379 6.98247C65.7492 6.96329 64.4542 8.23123 64.4542 10.2703C64.4542 12.3094 65.7511 13.4814 67.4379 13.4814C69.1247 13.4814 70.4236 12.271 70.4236 10.2511Z" fill="#23282E"/>
<path d="M84.0316 10.8094H76.3343C76.3735 12.6548 77.6097 13.6158 79.1808 13.6158C80.3583 13.6158 81.3417 13.0768 81.7531 12.0006H83.9336C83.4027 13.9994 81.5964 15.346 79.1417 15.346C76.1364 15.346 74.1538 13.3089 74.1538 10.2129C74.1538 7.11685 76.1364 5.09888 79.1221 5.09888C82.1077 5.09888 84.0316 7.0593 84.0316 10.021V10.8094ZM76.3539 9.34774H81.8511C81.7335 7.63669 80.5757 6.77157 79.1221 6.77157C77.6684 6.77157 76.5106 7.63669 76.3539 9.34774Z" fill="#23282E"/>
<path d="M87.8224 5.31128C86.8233 5.31128 86.0142 6.1035 86.0142 7.0818V15.1556H88.175V9.90734V7.63808C88.175 7.39447 88.3768 7.19497 88.6276 7.19497H91.9267V5.31128H87.8244H87.8224Z" fill="#23282E"/>
<path d="M58.8002 5.29224L56.032 13.4639L53.0464 5.31142H50.7288L54.5568 15.0215C54.6744 15.3284 54.7331 15.5797 54.7331 15.829C54.7331 15.9652 54.7194 16.0899 54.6959 16.205L54.69 16.2261C54.6763 16.2875 54.6607 16.345 54.6411 16.4007L54.4961 16.9205C54.4608 17.049 54.3413 17.1373 54.2062 17.1373H51.1598V19.0018H53.3794C54.8722 19.0018 56.1084 18.6565 56.8157 16.7325L61.0375 5.31142L58.7983 5.29224H58.8002Z" fill="#23282E"/>
<path d="M40.5181 15.1539H42.6574V9.84814C42.6574 8.19463 43.5801 7.04178 45.2885 7.04178C46.7813 7.0226 47.704 7.88771 47.704 9.79059V15.1539H49.8453V9.46258C49.8453 6.09801 47.7452 5.09862 45.839 5.09862C44.3853 5.09862 43.2471 5.65682 42.6574 6.57949V1.27368H40.5181V15.1539Z" fill="#23282E"/>
<path d="M94.7536 12.1751C94.7732 13.1937 95.7351 13.7902 97.0516 13.7902C98.3681 13.7902 99.1517 13.3088 99.1517 12.4436C99.1517 11.6936 98.7599 11.2908 97.6197 11.1162L95.598 10.771C93.6349 10.4449 92.8689 9.44355 92.8689 8.04133C92.8689 6.27272 94.6556 5.11987 96.9341 5.11987C99.3888 5.11987 101.175 6.27273 101.195 8.23507H99.0753C99.0558 7.23567 98.1722 6.67747 96.936 6.67747C95.6998 6.67747 95.0122 7.15894 95.0122 7.96652C95.0122 8.67818 95.5235 9.00427 96.6421 9.1961L98.6248 9.54138C100.49 9.86748 101.354 10.771 101.354 12.2518C101.354 14.289 99.4299 15.3478 97.0927 15.3478C94.4421 15.3478 92.6554 14.0991 92.6162 12.1751H94.7575H94.7536Z" fill="#23282E"/>
<path d="M106.22 12.848L108.499 5.31128H110.738L112.977 12.848L114.881 5.31128H117.14L114.294 15.1556H111.878L109.6 7.65727L107.302 15.1556H104.866L102 5.31128H104.259L106.222 12.848H106.22Z" fill="#23282E"/>
<path d="M118.396 1.27368H120.772V3.46621H118.396V1.27368ZM118.514 5.31154H120.653V15.1559H118.514V5.31154Z" fill="#23282E"/>
<path d="M134.261 6.92653C132.591 6.92653 131.453 8.11774 131.453 10.2144C131.453 12.4261 132.631 13.5022 134.202 13.5022C135.458 13.5022 136.382 12.8097 136.794 11.5034H139.072C138.561 13.8878 136.715 15.3494 134.241 15.3494C131.257 15.3494 129.253 13.3123 129.253 10.2163C129.253 7.12027 131.255 5.10229 134.261 5.10229C136.715 5.10229 138.541 6.46807 139.072 8.8505H136.755C136.402 7.62092 135.438 6.92844 134.261 6.92844V6.92653Z" fill="#23282E"/>
<path d="M125.944 13.2891C125.819 13.2891 125.719 13.1893 125.719 13.0685V7.17569H128.056V5.31118H125.719V2.67554H123.58V4.38659C123.58 5.00234 123.384 5.30926 122.755 5.30926H121.891V7.17377H123.58V12.4796C123.58 14.1906 124.542 15.1517 126.289 15.1517H128.037V13.2871H125.946L125.944 13.2891Z" fill="#23282E"/>
<path d="M145.996 5.09862C144.542 5.09862 143.404 5.65682 142.814 6.57949V1.27368H140.675V15.1539H142.814V9.84814C142.814 8.19463 143.737 7.04178 145.445 7.04178C146.938 7.0226 147.861 7.88771 147.861 9.79059V15.1539H150.002V9.46258C150.002 6.09801 147.902 5.09862 145.996 5.09862Z" fill="#23282E"/>
<path d="M26.3741 0H8.32737C3.72829 0 0 3.65051 0 8.15364C0 12.6568 3.72829 16.3073 8.32737 16.3073H26.3741C30.9732 16.3073 34.7015 12.6568 34.7015 8.15364C34.7015 3.65051 30.9732 0 26.3741 0Z" fill="#0070FF"/>
<path d="M27.2419 10.733C28.6966 10.733 29.8759 9.57836 29.8759 8.15399C29.8759 6.72963 28.6966 5.57495 27.2419 5.57495C25.7872 5.57495 24.6079 6.72963 24.6079 8.15399C24.6079 9.57836 25.7872 10.733 27.2419 10.733Z" fill="white"/>
<path d="M10.3467 10.1649L7.59184 5.97618C7.52981 5.88196 7.38928 5.88196 7.32724 5.97618L4.57234 10.1649C4.50461 10.2671 4.57994 10.4023 4.70464 10.4023H10.2144C10.3391 10.4023 10.4145 10.2671 10.3467 10.1649Z" fill="white"/>
<path d="M19.5292 5.77246H15.1722C15.0323 5.77246 14.9189 5.88346 14.9189 6.02039V10.2866C14.9189 10.4235 15.0323 10.5345 15.1722 10.5345H19.5292C19.6691 10.5345 19.7824 10.4235 19.7824 10.2866V6.02039C19.7824 5.88346 19.6691 5.77246 19.5292 5.77246Z" fill="white"/>
</g>
<defs>
<clipPath id="clip0_90_5870">
<rect width="150" height="19" fill="white"/>
</clipPath>
</defs>
</svg>
