<svg width="40" height="81" viewBox="0 0 40 81" fill="none" xmlns="http://www.w3.org/2000/svg">
<g clip-path="url(#clip0_1745_6220)">
<path d="M39.5852 6.35012C39.5852 3.05015 36.9101 0.375 33.6101 0.375H6.39011C3.09015 0.375 0.414999 3.05015 0.414999 6.35012V74.649C0.414999 77.949 3.09015 80.6241 6.39011 80.6241H33.6101C36.9101 80.6241 39.5852 77.949 39.5852 74.649V6.35012Z" fill="url(#paint0_linear_1745_6220)"/>
<path fill-rule="evenodd" clip-rule="evenodd" d="M33.6099 0.208984H6.38991C2.99828 0.208984 0.248819 2.95845 0.248819 6.35008V74.649C0.248819 78.0406 2.99828 80.7901 6.38991 80.7901H33.6099C37.0015 80.7901 39.751 78.0406 39.751 74.649V6.35008C39.751 2.95845 37.0015 0.208984 33.6099 0.208984ZM33.6099 0.37496C36.9099 0.37496 39.585 3.05011 39.585 6.35008V74.649C39.585 77.9489 36.9099 80.6241 33.6099 80.6241H6.38991C3.08995 80.6241 0.414795 77.9489 0.414795 74.649V6.35008C0.414795 3.05011 3.08995 0.37496 6.38991 0.37496H33.6099Z" fill="#56657B"/>
<path d="M40 13.2382C40 13.1007 39.8885 12.9893 39.751 12.9893V16.0598C39.8885 16.0598 40 15.9483 40 15.8108V13.2382Z" fill="#56657B"/>
<path d="M40 19.2133C40 19.0758 39.8885 18.9644 39.751 18.9644V24.9395C39.8885 24.9395 40 24.828 40 24.6905V19.2133Z" fill="#56657B"/>
<path d="M39.751 26.3503C39.8885 26.3503 40 26.4617 40 26.5992V32.0764C40 32.2139 39.8885 32.3254 39.751 32.3254V26.3503Z" fill="#56657B"/>
<path d="M0.248879 30.4997C0.11138 30.4997 -8.38041e-05 30.3882 -8.38041e-05 30.2507L-8.63367e-05 21.1221C-8.63367e-05 20.9846 0.11138 20.8731 0.248879 20.8731V30.4997Z" fill="#56657B"/>
<path d="M8.79655 0.208984H8.29863V0.37496H8.79655V0.208984Z" fill="#77839E"/>
<path d="M39.751 9.00568L39.751 8.50776H39.585L39.585 9.00568H39.751Z" fill="#77839E"/>
<path d="M0.414795 9.00568V8.50776H0.248819V9.00568H0.414795Z" fill="#77839E"/>
<path d="M39.751 72.4083L39.751 71.9104H39.585L39.585 72.4083H39.751Z" fill="#77839E"/>
<path d="M0.414795 72.4083V71.9104H0.248819V72.4083H0.414795Z" fill="#77839E"/>
<path d="M31.7012 80.6241H31.2032V80.7901H31.7012V80.6241Z" fill="#77839E"/>
<path d="M21.4515 43.9818C21.3086 43.9516 21.1517 43.9012 20.9811 43.8303C20.6809 43.7065 20.4049 43.6451 20.1526 43.6451C19.888 43.6451 19.6043 43.7065 19.3007 43.8303C18.9967 43.9546 18.7518 44.0195 18.5646 44.0259C18.2798 44.0382 17.9959 43.9114 17.7126 43.6451C17.5318 43.4857 17.3056 43.2124 17.0346 42.8252C16.7439 42.4118 16.5049 41.9324 16.3177 41.3858C16.1171 40.7954 16.0166 40.2237 16.0166 39.6702C16.0166 39.0362 16.1521 38.4893 16.4236 38.0311C16.637 37.663 16.9208 37.3727 17.2761 37.1595C17.6109 36.9586 17.9712 36.8506 18.3577 36.833L21.4515 43.9818Z" fill="#8E9AAE"/>
<path d="M21.4173 36.0795C21.7582 35.6706 21.9292 35.2288 21.9292 34.7557C21.9292 34.7339 21.9288 34.7121 21.9281 34.6903C21.9276 34.6771 21.927 34.6639 21.9263 34.6507C21.9247 34.6227 21.9224 34.5945 21.9193 34.5664C21.6819 34.5788 21.4294 34.6516 21.1625 34.7831C20.895 34.9165 20.6744 35.0839 20.501 35.2851C20.1536 35.6825 19.958 36.1687 19.958 36.6229C19.958 36.6857 19.962 36.7454 19.9688 36.8021C20.5084 36.8465 21.0059 36.5656 21.4173 36.0795Z" fill="#BECEE2"/>
<path d="M23.2319 42.8536C23.4261 42.5739 23.5936 42.2696 23.7352 41.9391C23.7935 41.7989 23.8484 41.6529 23.9004 41.5005C23.6606 41.3989 23.4451 41.2558 23.2522 41.0707C22.8264 40.6719 22.6097 40.1695 22.6034 39.5659C22.5964 38.7909 22.9448 38.1868 23.6491 37.7555C23.2557 37.1902 22.664 36.8764 21.8766 36.8122C21.586 36.7873 21.2312 36.8506 20.811 37.0034C20.3665 37.1683 20.1043 37.251 20.0269 37.251C19.9235 37.251 19.6875 37.1802 19.3199 37.0408C18.9513 36.9018 18.6547 36.8311 18.4285 36.8311C18.4048 36.8315 18.3812 36.8322 18.3577 36.8333L21.4515 43.9821C21.5593 44.0049 21.6589 44.0163 21.7506 44.0163C22.0476 44.0093 22.3249 43.886 22.5837 43.6454C22.7507 43.4989 22.9674 43.2349 23.2319 42.8536Z" fill="#BECEE2"/>
<g clip-path="url(#clip1_1745_6220)">
<path d="M2.73853 11.1962C2.73853 8.22163 2.73853 6.73435 3.31741 5.59822C3.82662 4.59885 4.63913 3.78633 5.6385 3.27713C6.77463 2.69824 8.26191 2.69824 11.2365 2.69824H13.4107C16.3853 2.69824 17.8726 2.69824 19.0087 3.27713C20.0081 3.78633 20.8206 4.59885 21.3298 5.59822C21.9087 6.73435 21.9087 8.22163 21.9087 11.1962V13.9514C21.9087 16.9259 21.9087 18.4132 21.3298 19.5493C20.8206 20.5487 20.0081 21.3612 19.0087 21.8704C17.8726 22.4493 16.3853 22.4493 13.4107 22.4493H11.2365C8.26191 22.4493 6.77463 22.4493 5.6385 21.8704C4.63913 21.3612 3.82662 20.5487 3.31741 19.5493C2.73853 18.4132 2.73853 16.9259 2.73853 13.9514V11.1962Z" fill="#D1DDE9"/>
<path d="M3.31741 5.59906C2.73853 6.73519 2.73853 8.22247 2.73853 11.197V13.9522C2.73853 16.9268 2.73853 18.4141 3.31741 19.5502C3.82662 20.5496 4.63913 21.3621 5.6385 21.8713C6.77463 22.4502 8.26191 22.4502 11.2365 22.4502H13.4107C14.3227 22.4502 15.0949 22.4502 15.76 22.4335L6.88652 2.87891C6.40847 2.9646 6.00519 3.09114 5.6385 3.27798C4.63913 3.78718 3.82662 4.59969 3.31741 5.59906Z" fill="#94A0B2"/>
<circle cx="16.9711" cy="5.56164" r="1.53527" fill="white"/>
<circle cx="16.9711" cy="19.587" r="1.53527" fill="black"/>
<circle cx="19.9999" cy="17.8857" r="0.248963" fill="black"/>
<path d="M11.6598 7.8443C11.6598 9.9297 9.96925 11.6202 7.88385 11.6202C5.79846 11.6202 4.10791 9.9297 4.10791 7.8443C4.10791 5.75891 5.79846 4.06836 7.88385 4.06836C9.96925 4.06836 11.6598 5.75891 11.6598 7.8443Z" fill="black"/>
<path d="M9.61 7.84431C9.61 8.79763 8.83718 9.57045 7.88386 9.57045C6.93054 9.57045 6.15771 8.79763 6.15771 7.84431C6.15771 6.89099 6.93054 6.11816 7.88386 6.11816C8.83718 6.11816 9.61 6.89099 9.61 7.84431Z" fill="#252C39"/>
<path d="M8.63904 7.84406C8.63904 8.26113 8.30093 8.59924 7.88385 8.59924C7.46677 8.59924 7.12866 8.26113 7.12866 7.84406C7.12866 7.42698 7.46677 7.08887 7.88385 7.08887C8.30093 7.08887 8.63904 7.42698 8.63904 7.84406Z" fill="#254A84"/>
<path fill-rule="evenodd" clip-rule="evenodd" d="M12.1991 7.84368C12.1991 10.227 10.267 12.159 7.88372 12.159C5.50041 12.159 3.56836 10.227 3.56836 7.84368C3.56836 5.46037 5.50041 3.52832 7.88372 3.52832C10.267 3.52832 12.1991 5.46037 12.1991 7.84368ZM7.88372 11.6196C9.96912 11.6196 11.6597 9.92908 11.6597 7.84368C11.6597 5.75829 9.96912 4.06774 7.88372 4.06774C5.79833 4.06774 4.10778 5.75829 4.10778 7.84368C4.10778 9.92908 5.79833 11.6196 7.88372 11.6196Z" fill="#99ABC3"/>
<path d="M11.6598 17.3043C11.6598 19.3897 9.96925 21.0802 7.88385 21.0802C5.79846 21.0802 4.10791 19.3897 4.10791 17.3043C4.10791 15.2189 5.79846 13.5283 7.88385 13.5283C9.96925 13.5283 11.6598 15.2189 11.6598 17.3043Z" fill="black"/>
<path d="M9.61 17.3043C9.61 18.2576 8.83718 19.0304 7.88386 19.0304C6.93054 19.0304 6.15771 18.2576 6.15771 17.3043C6.15771 16.3509 6.93054 15.5781 7.88386 15.5781C8.83718 15.5781 9.61 16.3509 9.61 17.3043Z" fill="#252C39"/>
<path d="M8.63904 17.304C8.63904 17.7211 8.30093 18.0592 7.88385 18.0592C7.46677 18.0592 7.12866 17.7211 7.12866 17.304C7.12866 16.8869 7.46677 16.5488 7.88385 16.5488C8.30093 16.5488 8.63904 16.8869 8.63904 17.304Z" fill="#254A84"/>
<path fill-rule="evenodd" clip-rule="evenodd" d="M12.1991 17.3046C12.1991 19.6879 10.267 21.62 7.88372 21.62C5.50041 21.62 3.56836 19.6879 3.56836 17.3046C3.56836 14.9213 5.50041 12.9893 7.88372 12.9893C10.267 12.9893 12.1991 14.9213 12.1991 17.3046ZM7.88372 21.0806C9.96912 21.0806 11.6597 19.39 11.6597 17.3046C11.6597 15.2192 9.96912 13.5287 7.88372 13.5287C5.79833 13.5287 4.10778 15.2192 4.10778 17.3046C4.10778 19.39 5.79833 21.0806 7.88372 21.0806Z" fill="#99ABC3"/>
<path d="M20.7885 12.5738C20.7885 14.6592 19.0979 16.3497 17.0125 16.3497C14.9271 16.3497 13.2366 14.6592 13.2366 12.5738C13.2366 10.4884 14.9271 8.79785 17.0125 8.79785C19.0979 8.79785 20.7885 10.4884 20.7885 12.5738Z" fill="black"/>
<path d="M18.7387 12.5738C18.7387 13.5271 17.9658 14.2999 17.0125 14.2999C16.0592 14.2999 15.2864 13.5271 15.2864 12.5738C15.2864 11.6205 16.0592 10.8477 17.0125 10.8477C17.9658 10.8477 18.7387 11.6205 18.7387 12.5738Z" fill="#252C39"/>
<path d="M17.7677 12.5745C17.7677 12.9916 17.4296 13.3297 17.0125 13.3297C16.5954 13.3297 16.2573 12.9916 16.2573 12.5745C16.2573 12.1574 16.5954 11.8193 17.0125 11.8193C17.4296 11.8193 17.7677 12.1574 17.7677 12.5745Z" fill="#254A84"/>
<path fill-rule="evenodd" clip-rule="evenodd" d="M21.3277 12.5742C21.3277 14.9575 19.3957 16.8895 17.0124 16.8895C14.6291 16.8895 12.697 14.9575 12.697 12.5742C12.697 10.1908 14.6291 8.25879 17.0124 8.25879C19.3957 8.25879 21.3277 10.1908 21.3277 12.5742ZM17.0124 16.3501C19.0978 16.3501 20.7883 14.6595 20.7883 12.5742C20.7883 10.4888 19.0978 8.79821 17.0124 8.79821C14.927 8.79821 13.2364 10.4888 13.2364 12.5742C13.2364 14.6595 14.927 16.3501 17.0124 16.3501Z" fill="#99ABC3"/>
</g>
</g>
<defs>
<linearGradient id="paint0_linear_1745_6220" x1="20.0001" y1="0.375" x2="20.0001" y2="80.6241" gradientUnits="userSpaceOnUse">
<stop stop-color="#C2D9F4"/>
<stop offset="0.515625" stop-color="#9FB4CB"/>
<stop offset="1" stop-color="#8691A1"/>
</linearGradient>
<clipPath id="clip0_1745_6220">
<rect width="40.0001" height="80.5811" fill="white" transform="translate(0 0.208984)"/>
</clipPath>
<clipPath id="clip1_1745_6220">
<rect x="2.73853" y="2.69824" width="19.1702" height="19.7511" rx="5.31121" fill="white"/>
</clipPath>
</defs>
</svg>
