<?xml version="1.0" standalone="no"?>
<!DOCTYPE svg PUBLIC "-//W3C//DTD SVG 20010904//EN"
 "http://www.w3.org/TR/2001/REC-SVG-20010904/DTD/svg10.dtd">
<svg version="1.0" xmlns="http://www.w3.org/2000/svg"
 width="161.000000pt" height="44.000000pt" viewBox="0 0 161.000000 44.000000"
 preserveAspectRatio="xMidYMid meet">

<g transform="translate(0.000000,44.000000) scale(0.100000,-0.100000)"
fill="#FFFFFF" stroke="none">
<path fill="#bb3f59" d="M207 363 c-104 -168 -169 -285 -163 -299 13 -35 43 -4 116 121 42 72
80 130 84 130 8 0 125 -193 126 -207 0 -4 -48 -9 -107 -10 -100 -3 -108 -4
-108 -23 0 -19 8 -20 125 -23 138 -3 170 1 170 23 0 24 -191 325 -206 325 -7
0 -24 -17 -37 -37z"/>
<path d="M535 393 c-11 -3 -34 -16 -51 -28 -95 -72 -81 -236 26 -292 38 -20
57 -23 166 -23 76 0 125 4 129 11 4 5 20 58 35 116 16 58 31 107 33 109 2 3
26 -48 53 -112 27 -64 55 -119 62 -121 22 -9 39 15 88 129 l49 111 17 -59 c9
-32 24 -85 33 -117 16 -58 37 -79 58 -58 8 8 0 52 -31 168 -23 87 -47 162 -52
167 -20 20 -41 -9 -92 -126 -28 -65 -54 -118 -57 -118 -4 0 -29 52 -56 116
-52 121 -76 152 -98 123 -7 -9 -27 -76 -46 -148 l-34 -133 -113 4 c-109 3
-115 4 -141 31 -24 23 -28 36 -28 82 0 46 4 59 28 82 26 27 32 28 155 33 l127
5 0 25 0 25 -120 1 c-66 1 -129 0 -140 -3z"/>
<path d="M1266 378 c-13 -18 -16 -50 -16 -154 0 -181 -6 -176 170 -172 l135 3
0 25 0 25 -122 3 -123 3 0 114 0 114 123 3 122 3 0 25 0 25 -137 3 c-132 2
-137 2 -152 -20z"/>
<path d="M1337 236 c-10 -27 17 -36 103 -36 86 0 113 9 103 36 -7 20 -199 20
-206 0z"/>
</g>
</svg>
