<svg width="52" height="72" viewBox="0 0 52 72" fill="none" xmlns="http://www.w3.org/2000/svg">
<g clip-path="url(#clip0_1745_7488)">
<path d="M3.95483 0.1875C1.87432 0.1875 0.187744 1.87401 0.187744 3.95443L0.187741 68.2327C0.187741 70.3132 1.87432 71.9997 3.95483 71.9997L48.198 71.9997C50.2785 71.9997 51.9651 70.3132 51.9651 68.2327L51.9651 3.95444C51.9651 1.87402 50.2786 0.187502 48.198 0.187502L3.95483 0.1875Z" fill="url(#paint0_linear_1745_7488)"/>
<path fill-rule="evenodd" clip-rule="evenodd" d="M3.88174 0C3.84716 0 3.81913 0.0280309 3.81913 0.0626087V0.190228C1.80152 0.261704 0.187826 1.91979 0.187826 3.95476L0.187826 5.76H0.0626087C0.0280309 5.76 0 5.78803 0 5.82261L1.20415e-07 8.57739C1.21927e-07 8.61197 0.028031 8.64 0.0626089 8.64H0.187826L0.187826 9.26609H0.0626087C0.0280309 9.26609 0 9.29412 0 9.3287L1.20415e-07 12.0835C1.21927e-07 12.1181 0.028031 12.1461 0.0626089 12.1461H0.187826L0.187823 68.2331C0.187823 70.3135 1.8744 72 3.95491 72H48.1981C50.2786 72 51.9652 70.3135 51.9652 68.2331L51.9652 3.95476C51.9652 1.87434 50.2786 0.187828 48.1981 0.187828L7.32522 0.187826V0.0626087C7.32522 0.0280309 7.29719 0 7.26261 0H3.88174ZM0.375652 3.95476L0.375649 68.2331C0.375649 70.2097 1.97813 71.8122 3.95491 71.8122H48.1981C50.1749 71.8122 51.7774 70.2097 51.7774 68.2331L51.7774 3.95476C51.7774 1.97808 50.1749 0.375654 48.1981 0.375654L3.95491 0.375652C1.97813 0.375652 0.375652 1.97808 0.375652 3.95476Z" fill="#637D8E"/>
<path d="M26.4836 68.4315C26.4836 68.7082 26.2593 68.9324 25.9827 68.9324C25.7061 68.9324 25.4819 68.7082 25.4819 68.4315C25.4819 68.1549 25.7061 67.9307 25.9827 67.9307C26.2593 67.9307 26.4836 68.1549 26.4836 68.4315Z" fill="#C4C4C4"/>
<path d="M27.9862 68.4315C27.9862 68.7082 27.762 68.9324 27.4853 68.9324C27.2087 68.9324 26.9845 68.7082 26.9845 68.4315C26.9845 68.1549 27.2087 67.9307 27.4853 67.9307C27.762 67.9307 27.9862 68.1549 27.9862 68.4315Z" fill="#C4C4C4"/>
<path d="M24.981 68.4315C24.981 68.7082 24.7567 68.9324 24.4801 68.9324C24.2035 68.9324 23.9792 68.7082 23.9792 68.4315C23.9792 68.1549 24.2035 67.9307 24.4801 67.9307C24.7567 67.9307 24.981 68.1549 24.981 68.4315Z" fill="#C4C4C4"/>
<path d="M24.4691 58.3304C24.5322 58.3304 24.5826 58.2791 24.5826 58.2169C24.5826 58.1538 24.5322 58.1035 24.4691 58.1035C24.406 58.1035 24.3547 58.1538 24.3547 58.2169C24.3547 58.2791 24.406 58.3304 24.4691 58.3304ZM24.3703 59.4482L24.5679 59.4482L24.5679 58.4859L24.3703 58.4859L24.3703 59.4482Z" fill="#5C6D7A"/>
<path d="M24.7939 58.1282L24.7939 59.4482L24.9988 59.4482L24.9988 58.9972L25.2825 58.9972C25.5414 58.9972 25.7234 58.8198 25.7234 58.5618C25.7234 58.3048 25.545 58.1282 25.2889 58.1282L24.7939 58.1282ZM24.9988 58.3011L25.2349 58.3011C25.4124 58.3011 25.5139 58.3962 25.5139 58.5627C25.5139 58.7292 25.4124 58.8252 25.234 58.8252L24.9988 58.8252L24.9988 58.3011Z" fill="#5C6D7A"/>
<path d="M26.0839 59.4646C26.2102 59.4646 26.3319 59.397 26.3877 59.2899L26.3923 59.2899L26.3923 59.4482L26.5816 59.4482L26.5816 58.785C26.5816 58.592 26.4325 58.4685 26.1992 58.4685C25.9613 58.4685 25.8131 58.5966 25.8021 58.7704L25.9888 58.7704C26.0062 58.6844 26.0775 58.6295 26.1919 58.6295C26.3127 58.6295 26.3849 58.6935 26.3849 58.8005L26.3849 58.8746L26.1214 58.8902C25.8927 58.903 25.7637 59.0064 25.7637 59.1747C25.7637 59.3476 25.8955 59.4646 26.0839 59.4646ZM26.1388 59.3082C26.0327 59.3082 25.9632 59.2533 25.9632 59.1692C25.9632 59.0869 26.0299 59.0347 26.148 59.0265L26.3849 59.0118L26.3849 59.0878C26.3849 59.2131 26.277 59.3082 26.1388 59.3082Z" fill="#5C6D7A"/>
<path d="M27.1352 59.4646C27.2751 59.4646 27.3849 59.3942 27.4417 59.2844L27.4453 59.2844L27.4453 59.4482L27.6375 59.4482L27.6375 58.1282L27.4389 58.1282L27.4389 58.646L27.4353 58.646C27.3813 58.5398 27.2715 58.4703 27.1333 58.4703C26.8918 58.4703 26.7308 58.6633 26.7308 58.967C26.7308 59.2707 26.8918 59.4646 27.1352 59.4646ZM27.1873 58.6368C27.3392 58.6368 27.4407 58.7676 27.4407 58.967C27.4407 59.1683 27.3392 59.2972 27.1873 59.2972C27.0309 59.2972 26.933 59.1701 26.933 58.967C26.933 58.7649 27.0309 58.6368 27.1873 58.6368Z" fill="#5C6D7A"/>
<path d="M28.0797 30.3806C28.0797 30.8879 27.8977 31.3615 27.535 31.7999C27.0973 32.321 26.5678 32.6222 25.9936 32.5746C25.9863 32.5138 25.9821 32.4497 25.9821 32.3824C25.9821 31.8955 26.1902 31.3743 26.5599 30.9482C26.7445 30.7325 26.9792 30.5531 27.2639 30.41C27.5479 30.269 27.8166 30.1911 28.0693 30.1777C28.0725 30.2079 28.075 30.2381 28.0767 30.2681C28.0788 30.3058 28.0797 30.3433 28.0797 30.3806Z" fill="#5C6D7A"/>
<path d="M30.0016 38.0819C29.8509 38.4362 29.6727 38.7624 29.4661 39.0623C29.1845 39.4712 28.954 39.7541 28.7763 39.9113C28.5008 40.1692 28.2057 40.3013 27.8897 40.3088C27.6629 40.3088 27.3893 40.2431 27.0708 40.1097C26.7513 39.977 26.4577 39.9113 26.1892 39.9113C25.9076 39.9113 25.6056 39.977 25.2826 40.1097C24.9591 40.2431 24.6985 40.3126 24.4992 40.3195C24.1962 40.3326 23.8941 40.1967 23.5927 39.9113C23.4002 39.7403 23.1595 39.4474 22.8712 39.0323C22.5618 38.589 22.3075 38.075 22.1082 37.489C21.8948 36.856 21.7878 36.2431 21.7878 35.6497C21.7878 34.97 21.9321 34.3838 22.221 33.8925C22.448 33.4979 22.7501 33.1866 23.1281 32.9581C23.5061 32.7296 23.9146 32.6131 24.3545 32.6057C24.5952 32.6057 24.9108 32.6815 25.3031 32.8305C25.6942 32.98 25.9454 33.0558 26.0555 33.0558C26.1378 33.0558 26.4168 32.9672 26.8898 32.7904C27.337 32.6265 27.7145 32.5587 28.0238 32.5854C28.8617 32.6543 29.4913 32.9906 29.91 33.5967C29.1605 34.0591 28.7898 34.7068 28.7972 35.5376C28.8039 36.1848 29.0345 36.7233 29.4876 37.1509C29.6929 37.3494 29.9223 37.5028 30.1774 37.6117C30.1221 37.7751 30.0637 37.9317 30.0016 38.0819Z" fill="#5C6D7A"/>
<ellipse cx="3.88189" cy="8.01324" rx="0.313044" ry="0.313043" fill="black"/>
<ellipse cx="3.88181" cy="3.75608" rx="1.81565" ry="1.81565" fill="#637D8E"/>
<circle cx="3.88176" cy="3.75652" r="1.50261" fill="black"/>
<path d="M4.50779 3.75597C4.50779 4.10175 4.22748 4.38206 3.8817 4.38206C3.53592 4.38206 3.25562 4.10175 3.25562 3.75597C3.25562 3.41019 3.53592 3.12988 3.8817 3.12988C4.22748 3.12988 4.50779 3.41019 4.50779 3.75597Z" fill="#1C1D22"/>
<path d="M4.13222 3.75629C4.13222 3.89461 4.02009 4.00673 3.88178 4.00673C3.74347 4.00673 3.63135 3.89461 3.63135 3.75629C3.63135 3.61798 3.74347 3.50586 3.88178 3.50586C4.02009 3.50586 4.13222 3.61798 4.13222 3.75629Z" fill="#26295F"/>
</g>
<defs>
<linearGradient id="paint0_linear_1745_7488" x1="26.1077" y1="0.1875" x2="26.1077" y2="71.9997" gradientUnits="userSpaceOnUse">
<stop stop-color="#A7C4D3"/>
<stop offset="1" stop-color="#5D7686"/>
</linearGradient>
<clipPath id="clip0_1745_7488">
<rect width="72" height="51.9652" fill="white" transform="matrix(-4.37114e-08 1 1 4.37114e-08 0 0)"/>
</clipPath>
</defs>
</svg>
