<svg width="28" height="28" viewBox="0 0 28 28" fill="none" xmlns="http://www.w3.org/2000/svg">
<path d="M27.0584 5.52281C26.9645 5.41048 26.8471 5.32013 26.7145 5.25814C26.5819 5.19615 26.4373 5.16404 26.2909 5.16406H6.12589L5.51464 1.80656C5.43092 1.34573 5.18812 0.9289 4.82857 0.62874C4.46901 0.328579 4.01552 0.16413 3.54714 0.164062H1.29089C1.02568 0.164063 0.771323 0.269419 0.583787 0.456956C0.39625 0.644492 0.290894 0.898846 0.290894 1.16406C0.290894 1.42928 0.39625 1.68363 0.583787 1.87117C0.771323 2.05871 1.02568 2.16406 1.29089 2.16406H3.54089L6.73589 19.7003C6.83001 20.2204 7.05985 20.7064 7.40214 21.1091C6.9297 21.5503 6.58871 22.1138 6.41697 22.7371C6.24523 23.3603 6.24945 24.0189 6.42918 24.6399C6.60891 25.2609 6.95711 25.82 7.43518 26.2551C7.91324 26.6903 8.50249 26.9846 9.13759 27.1053C9.77269 27.226 10.4288 27.1685 11.0332 26.9391C11.6376 26.7097 12.1667 26.3174 12.5617 25.8056C12.9567 25.2939 13.2023 24.6828 13.2713 24.04C13.3402 23.3972 13.2297 22.7479 12.9521 22.1641H18.6296C18.4059 22.6324 18.2902 23.145 18.2909 23.6641C18.2909 24.3563 18.4962 25.033 18.8808 25.6086C19.2653 26.1841 19.812 26.6327 20.4515 26.8976C21.091 27.1625 21.7948 27.2319 22.4737 27.0968C23.1526 26.9618 23.7763 26.6284 24.2658 26.1389C24.7553 25.6495 25.0886 25.0258 25.2236 24.3469C25.3587 23.6679 25.2894 22.9642 25.0245 22.3247C24.7596 21.6851 24.311 21.1385 23.7354 20.7539C23.1598 20.3693 22.4831 20.1641 21.7909 20.1641H9.68714C9.45296 20.164 9.22621 20.0818 9.04643 19.9317C8.86666 19.7816 8.74525 19.5732 8.70339 19.3428L8.30714 17.1641H22.8071C23.5097 17.164 24.1899 16.9173 24.7293 16.467C25.2686 16.0168 25.6328 15.3916 25.7584 14.7003L27.2784 6.34281C27.3041 6.19836 27.2978 6.05002 27.2597 5.90831C27.2217 5.76659 27.153 5.63498 27.0584 5.52281ZM11.2909 23.6641C11.2909 23.9607 11.2029 24.2507 11.0381 24.4974C10.8733 24.7441 10.639 24.9363 10.3649 25.0499C10.0908 25.1634 9.78923 25.1931 9.49826 25.1352C9.20729 25.0774 8.94001 24.9345 8.73023 24.7247C8.52045 24.5149 8.37759 24.2477 8.31972 23.9567C8.26184 23.6657 8.29154 23.3641 8.40507 23.09C8.51861 22.8159 8.71087 22.5817 8.95754 22.4169C9.20421 22.252 9.49422 22.1641 9.79089 22.1641C10.1887 22.1641 10.5702 22.3221 10.8516 22.6034C11.1329 22.8847 11.2909 23.2662 11.2909 23.6641ZM23.2909 23.6641C23.2909 23.9607 23.2029 24.2507 23.0381 24.4974C22.8733 24.7441 22.639 24.9363 22.3649 25.0499C22.0908 25.1634 21.7892 25.1931 21.4983 25.1352C21.2073 25.0774 20.94 24.9345 20.7302 24.7247C20.5205 24.5149 20.3776 24.2477 20.3197 23.9567C20.2618 23.6657 20.2915 23.3641 20.4051 23.09C20.5186 22.8159 20.7109 22.5817 20.9575 22.4169C21.2042 22.252 21.4942 22.1641 21.7909 22.1641C22.1887 22.1641 22.5702 22.3221 22.8516 22.6034C23.1329 22.8847 23.2909 23.2662 23.2909 23.6641ZM23.7909 14.3428C23.7489 14.5739 23.627 14.7828 23.4464 14.9329C23.2659 15.0831 23.0382 15.1649 22.8034 15.1641H7.94339L6.48964 7.16406H25.0921L23.7909 14.3428Z" fill="white" fill-opacity="0.8"/>
</svg>
