<svg width="27" height="27" viewBox="0 0 27 27" fill="none" xmlns="http://www.w3.org/2000/svg">
<path d="M26.453 24.8563L20.1942 18.5988C22.0083 16.4209 22.9128 13.6275 22.7198 10.7997C22.5267 7.97186 21.2509 5.32733 19.1576 3.41623C17.0644 1.50512 14.315 0.474579 11.4813 0.538979C8.64767 0.603379 5.94792 1.75776 3.94369 3.76199C1.93946 5.76621 0.785081 8.46597 0.720681 11.2996C0.656281 14.1333 1.68682 16.8827 3.59793 18.9759C5.50903 21.0691 8.15356 22.345 10.9814 22.5381C13.8092 22.7311 16.6026 21.8265 18.7805 20.0125L25.038 26.2713C25.1309 26.3642 25.2412 26.4379 25.3626 26.4882C25.484 26.5384 25.6141 26.5643 25.7455 26.5643C25.8769 26.5643 26.007 26.5384 26.1284 26.4882C26.2498 26.4379 26.3601 26.3642 26.453 26.2713C26.5459 26.1784 26.6196 26.0681 26.6699 25.9467C26.7201 25.8253 26.746 25.6952 26.746 25.5638C26.746 25.4324 26.7201 25.3023 26.6699 25.1809C26.6196 25.0595 26.5459 24.9492 26.453 24.8563ZM2.74546 11.5638C2.74546 9.78373 3.2733 8.04367 4.26224 6.56363C5.25117 5.08359 6.65678 3.93003 8.30131 3.24885C9.94585 2.56766 11.7554 2.38943 13.5013 2.73669C15.2471 3.08396 16.8508 3.94113 18.1094 5.1998C19.3681 6.45847 20.2253 8.06212 20.5725 9.80795C20.9198 11.5538 20.7416 13.3634 20.0604 15.0079C19.3792 16.6524 18.2256 18.0581 16.7456 19.047C15.2656 20.0359 13.5255 20.5638 11.7455 20.5638C9.35933 20.5611 7.07168 19.6121 5.38443 17.9248C3.69717 16.2375 2.74811 13.9499 2.74546 11.5638Z" fill="white" fill-opacity="0.8"/>
</svg>
